HIERARCHY
ROOT Hips
{
	OFFSET 50.209099 -11.300817 100.556999
	CHANNELS 6 Xposition Yposition Zposition Xrotation Yrotation Zrotation
	JOINT spine
	{
		OFFSET 0.000000 -0.507026 8.817039
		CHANNELS 3 Xrotation Yrotation Zrotation
		JOINT spine1
		{
			OFFSET 0.000000 -0.000002 10.776596
			CHANNELS 3 Xrotation Yrotation Zrotation
			JOINT spine2
			{
				OFFSET 0.000000 -0.000001 10.325897
				CHANNELS 3 Xrotation Yrotation Zrotation
				JOINT Neck
				{
					OFFSET 0.000000 -1.263955 26.511002
					CHANNELS 3 Xrotation Yrotation Zrotation
					JOINT Head
					{
						OFFSET 0.000000 -0.000001 8.009659
						CHANNELS 3 Xrotation Yrotation Zrotation
						End Site
						{
							OFFSET 0.000000 6.393857 19.387894
						}
					}
				}
				JOINT RightShoulder
				{
					OFFSET -4.347950 0.605420 11.151199
					CHANNELS 3 Xrotation Yrotation Zrotation
					JOINT RightArm
					{
						OFFSET 0.000000 -0.000003 14.625793
						CHANNELS 3 Xrotation Yrotation Zrotation
						JOINT RightArmRoll
						{
							OFFSET 0.000000 -0.000001 7.383408
							CHANNELS 3 Xrotation Yrotation Zrotation
							JOINT RightForeArm
							{
								OFFSET 0.000000 -0.000004 21.505203
								CHANNELS 3 Xrotation Yrotation Zrotation
								JOINT RightForeArmRoll
								{
									OFFSET 0.000000 -0.000001 8.285324
									CHANNELS 3 Xrotation Yrotation Zrotation
									JOINT RightHand
									{
										OFFSET 0.000000 -0.000003 16.626801
										CHANNELS 3 Xrotation Yrotation Zrotation
										End Site
										{
											OFFSET 0.000000 0.000000 0.100006
										}
									}
								}
							}
						}
					}
				}
				JOINT LeftShoulder
				{
					OFFSET 4.347950 0.605420 11.151199
					CHANNELS 3 Xrotation Yrotation Zrotation
					JOINT LeftArm
					{
						OFFSET 0.000000 -0.000003 14.625793
						CHANNELS 3 Xrotation Yrotation Zrotation
						JOINT LeftArmRoll
						{
							OFFSET 0.000000 -0.000001 7.383408
							CHANNELS 3 Xrotation Yrotation Zrotation
							JOINT LeftForeArm
							{
								OFFSET 0.000000 -0.000004 21.505203
								CHANNELS 3 Xrotation Yrotation Zrotation
								JOINT LeftForeArmRoll
								{
									OFFSET 0.000000 -0.000001 8.285324
									CHANNELS 3 Xrotation Yrotation Zrotation
									JOINT LeftHand
									{
										OFFSET 0.000000 -0.000003 16.626801
										CHANNELS 3 Xrotation Yrotation Zrotation
										End Site
										{
											OFFSET 0.000000 0.000000 0.100006
										}
									}
								}
							}
						}
					}
				}
			}
		}
	}
	JOINT RightUpLeg
	{
		OFFSET -7.815102 1.202170 -1.433090
		CHANNELS 3 Xrotation Yrotation Zrotation
		JOINT RightUpLegRoll
		{
			OFFSET 0.000000 -0.000003 19.495903
			CHANNELS 3 Xrotation Yrotation Zrotation
			JOINT RightLeg
			{
				OFFSET 0.000000 0.000004 -24.142700
				CHANNELS 3 Xrotation Yrotation Zrotation
				JOINT RightLegRoll
				{
					OFFSET 0.000000 -0.000004 24.221703
					CHANNELS 3 Xrotation Yrotation Zrotation
					JOINT RightFoot
					{
						OFFSET 0.000000 -0.000004 20.160500
						CHANNELS 3 Xrotation Yrotation Zrotation
						JOINT RightToeBase
						{
							OFFSET 0.000000 -0.000003 16.853195
							CHANNELS 3 Xrotation Yrotation Zrotation
							End Site
							{
								OFFSET 0.007145 0.940780 8.161865
							}
						}
					}
				}
			}
		}
	}
	JOINT LeftUpLeg
	{
		OFFSET 7.815102 1.202170 -1.433090
		CHANNELS 3 Xrotation Yrotation Zrotation
		JOINT LeftUpLegRoll
		{
			OFFSET 0.000000 -0.000003 19.496002
			CHANNELS 3 Xrotation Yrotation Zrotation
			JOINT LeftLeg
			{
				OFFSET 0.000000 -0.000004 24.142601
				CHANNELS 3 Xrotation Yrotation Zrotation
				JOINT LeftLegRoll
				{
					OFFSET 0.000000 -0.000005 24.445602
					CHANNELS 3 Xrotation Yrotation Zrotation
					JOINT LeftFoot
					{
						OFFSET 0.000000 -0.000003 19.936600
						CHANNELS 3 Xrotation Yrotation Zrotation
						JOINT LeftToeBase
						{
							OFFSET 0.000000 -0.000003 16.853195
							CHANNELS 3 Xrotation Yrotation Zrotation
							End Site
							{
								OFFSET -0.032013 0.940779 8.161865
							}
						}
					}
				}
			}
		}
	}
}
MOTION
Frames: 8
Frame Time: 0.041667
50.805599 -11.715019 100.541992 -0.062382 0.449168 -0.025731 -3.001031 0.030527 -0.174049 -2.004632 0.069412 -0.346809 -0.359586 0.065192 -0.347584 23.461877 -16.918396 21.191984 -10.814321 20.510583 19.503368 -12.776274 -15.284958 -12.562999 -146.147839 -161.697366 -86.465141 -0.000007 0.000002 0.000002 61.777750 2.013411 4.026228 0.000005 0.000002 -3.000009 -5.000240 -7.998733 0.000159 -16.006688 27.315682 18.143288 -153.129508 187.415965 94.707321 0.000000 -0.000002 0.000011 51.788185 -5.083554 0.966316 0.000003 -0.000016 3.002439 -5.000212 7.998921 -0.000118 -2.111923 -179.179563 -1.016432 -179.999991 0.000005 -1.005990 174.187623 -1.734050 -0.453480 -0.000002 -0.000002 0.036349 68.239327 6.895452 2.187051 25.456965 -7.355619 0.000010 -1.118214 177.429477 2.546667 -0.000005 -0.000005 -1.058290 -7.625069 2.262328 0.449798 -0.000003 0.000004 -0.127152 70.133694 -6.862065 -2.137711 25.642320 7.355618 -0.279338 
50.801300 -11.716918 100.540985 -0.065807 0.446170 -0.028506 -2.998492 0.031630 -0.174665 -1.998552 0.071461 -0.347978 -0.353496 0.067238 -0.348784 23.193936 -16.995406 21.191217 -10.473714 20.418738 19.488702 -12.781921 -15.312427 -12.574339 -146.199571 -161.899867 -86.586472 -0.000007 0.000002 0.000001 62.054208 1.962663 4.066437 0.000005 0.000003 -3.000010 -5.000241 -7.998731 0.000159 -15.953230 27.325736 18.066106 -153.248121 187.585449 94.759715 0.000000 -0.000002 0.000012 51.932835 -5.050294 0.946558 0.000004 -0.000015 3.002439 -5.000212 7.998922 -0.000118 -2.105224 -179.175560 -1.015238 -179.999991 0.000005 -1.005990 174.191995 -1.733058 -0.454243 -0.000001 -0.000002 0.036321 68.240884 6.895429 2.187149 25.456962 -7.355619 0.000010 -1.114057 177.433493 2.547902 -0.000005 -0.000004 -1.058250 -7.624562 2.262906 0.449665 -0.000003 0.000004 -0.127021 70.132096 -6.862024 -2.137803 25.641720 7.355618 -0.278834 
50.803699 -11.715220 100.542992 -0.069207 0.443361 -0.031876 -2.995880 0.032679 -0.175360 -1.992361 0.073405 -0.349305 -0.347309 0.069177 -0.350140 22.936914 -17.073338 21.190177 -10.149320 20.336852 19.476160 -12.787829 -15.342234 -12.586302 -146.252273 -162.106876 -86.707353 -0.000009 0.000001 0.000001 62.313735 1.914980 4.104466 0.000004 0.000002 -3.000010 -5.000242 -7.998731 0.000160 -15.902041 27.330420 17.992084 -153.363469 187.747434 94.811092 0.000000 -0.000002 0.000012 52.076012 -5.017442 0.927224 0.000003 -0.000016 3.002439 -5.000214 7.998922 -0.000118 -2.098685 -179.172541 -1.014049 -179.999991 0.000005 -1.005990 174.196243 -1.732078 -0.454013 -0.000002 -0.000002 0.036292 68.242462 6.895404 2.187147 25.456962 -7.355619 0.000010 -1.109597 177.437482 2.548996 -0.000005 -0.000004 -1.058200 -7.623734 2.263525 0.449519 -0.000003 0.000004 -0.126889 70.130600 -6.861989 -2.137789 25.641107 7.355617 -0.278349 
50.799301 -11.711717 100.541985 -0.072617 0.440764 -0.036016 -2.993191 0.033656 -0.176130 -1.986061 0.075219 -0.350787 -0.341008 0.070984 -0.351649 22.696365 -17.152618 21.188918 -9.848008 20.269129 19.465708 -12.794079 -15.374165 -12.598995 -146.305780 -162.318708 -86.825891 -0.000011 0.000001 0.000001 62.554062 1.870939 4.140168 0.000004 0.000003 -3.000011 -5.000244 -7.998732 0.000159 -15.853766 27.328688 17.922106 -153.474856 187.900553 94.860160 -0.000000 -0.000002 0.000013 52.218548 -4.985215 0.908368 0.000005 -0.000015 3.002439 -5.000215 7.998920 -0.000118 -2.092337 -179.169563 -1.012886 -179.999991 0.000005 -1.005990 174.200327 -1.731099 -0.453789 -0.000001 -0.000002 0.036264 68.244026 6.895381 2.187145 25.456960 -7.355618 0.000011 -1.104682 177.441471 2.549899 -0.000005 -0.000004 -1.058160 -7.622496 2.264215 0.449361 -0.000003 0.000004 -0.126757 70.129097 -6.861953 -2.137774 25.640605 7.355623 -0.277942 
50.828201 -11.718019 100.545990 -0.076043 0.438403 -0.041103 -2.990402 0.034546 -0.176975 -1.979632 0.076875 -0.352421 -0.334582 0.072629 -0.353309 22.477705 -17.233510 21.187699 -9.576629 20.219614 19.456866 -12.800749 -15.407737 -12.612416 -146.360162 -162.535416 -86.940132 -0.000009 -0.000000 0.000002 62.772710 1.831121 4.173372 0.000004 0.000003 -3.000010 -5.000241 -7.998731 0.000158 -15.809000 27.319090 17.856992 -153.581503 188.043400 94.905697 0.000000 -0.000002 0.000012 52.361285 -4.953850 0.890041 0.000004 -0.000015 3.002439 -5.000209 7.998921 -0.000118 -2.086217 -179.167555 -1.011694 -179.999991 0.000005 -1.005990 174.204166 -1.730119 -0.453572 -0.000002 -0.000002 0.036236 68.245488 6.895348 2.187246 25.456964 -7.355617 0.000010 -1.099192 177.444476 2.550587 -0.000005 -0.000004 -1.058120 -7.620720 2.264998 0.449185 -0.000003 0.000004 -0.126627 70.127711 -6.861919 -2.137856 25.640199 7.355620 -0.277637 
50.825100 -11.714116 100.544991 -0.079521 0.436301 -0.047313 -2.987488 0.035332 -0.177890 -1.973072 0.078346 -0.354207 -0.328021 0.074087 -0.355117 22.286487 -17.316370 21.186666 -9.342036 20.192802 19.449580 -12.807816 -15.442561 -12.626592 -146.415200 -162.757220 -87.048309 -0.000010 0.000001 0.000000 62.967521 1.796089 4.203917 0.000000 0.000001 -3.000009 -5.000242 -7.998733 0.000158 -15.768281 27.300591 17.797583 -153.682494 188.174526 94.946378 -0.000000 -0.000002 0.000012 52.505228 -4.923546 0.872301 0.000004 -0.000015 3.002440 -5.000210 7.998922 -0.000118 -2.080374 -179.164550 -1.010532 -179.999991 0.000005 -1.005990 174.207731 -1.730129 -0.454462 -0.000002 -0.000002 0.036208 68.246861 6.895343 2.187259 25.456965 -7.355619 0.000011 -1.092990 177.448465 2.550994 -0.000005 -0.000004 -1.058080 -7.618323 2.265922 0.448994 -0.000003 0.000004 -0.126499 70.126324 -6.861886 -2.137835 25.639902 7.355619 -0.277479 
50.799900 -11.710322 100.542992 -0.083073 0.434482 -0.054824 -2.984432 0.035996 -0.178874 -1.966362 0.079604 -0.356141 -0.321310 0.075328 -0.357069 22.128365 -17.401461 21.186002 -9.151015 20.192676 19.443196 -12.815363 -15.478233 -12.641583 -146.470811 -162.984406 -87.148453 -0.000010 0.000001 0.000001 63.135905 1.766443 4.231573 0.000004 0.000002 -3.000010 -5.000239 -7.998735 0.000158 -15.732207 27.271764 17.744514 -153.777092 188.292565 94.981089 0.000000 -0.000002 0.000013 52.651135 -4.894550 0.855227 0.000004 -0.000016 3.002440 -5.000210 7.998922 -0.000118 -2.074828 -179.162542 -1.009312 -179.999991 0.000005 -1.005990 174.210928 -1.729147 -0.454265 -0.000001 -0.000002 0.036180 68.248118 6.895333 2.187278 25.456964 -7.355617 0.000010 -1.085954 177.450459 2.551122 -0.000005 -0.000004 -1.058040 -7.615196 2.267009 0.448784 -0.000003 0.000004 -0.126373 70.125033 -6.861854 -2.137909 25.639799 7.355616 -0.277512 
50.808899 -11.712219 100.544991 -0.086731 0.432969 -0.063810 -2.981220 0.036524 -0.179925 -1.959492 0.080622 -0.358222 -0.314441 0.076326 -0.359166 22.008710 -17.489160 21.186065 -9.010436 20.223531 19.437557 -12.823363 -15.514368 -12.657385 -146.526969 -163.217069 -87.238673 -0.000008 0.000001 0.000002 63.275699 1.742736 4.256204 0.000004 0.000003 -3.000011 -5.000242 -7.998733 0.000158 -15.701408 27.231447 17.698820 -153.864573 188.396056 95.008594 -0.000001 -0.000003 0.000012 52.799951 -4.867078 0.838849 0.000005 -0.000016 3.002440 -5.000212 7.998920 -0.000117 -2.069627 -179.159550 -1.008088 -179.999991 0.000005 -1.005990 174.213728 -1.729156 -0.454180 -0.000002 -0.000002 0.036153 68.249272 6.895312 2.187403 25.456964 -7.355617 0.000010 -1.077950 177.453451 2.550870 -0.000005 -0.000005 -1.057990 -7.611229 2.268269 0.448549 -0.000003 0.000004 -0.126250 70.123770 -6.861855 -2.137788 25.639796 7.355617 -0.277752 
